<svg width="54" height="107" viewBox="0 0 54 107" fill="none" xmlns="http://www.w3.org/2000/svg">
<path d="M53.327 0H0V106.509H53.327V0Z" fill="#00588E"/>
<path d="M27.602 82.375H26.735V79.775H27.602V82.375ZM31.793 70.958H30.926V68.358H31.793V70.958ZM14.593 66.622C14.593 66.622 14.015 66.622 14.015 66.767C14.015 66.912 14.304 66.767 14.593 66.912C15.316 67.057 15.605 67.346 16.183 67.346C16.617 67.346 17.195 67.057 16.906 66.334C16.906 66.189 16.761 66.189 16.761 66.334C16.761 66.623 16.327 66.768 15.894 66.768C15.461 66.768 15.318 66.623 14.596 66.623L14.593 66.622ZM9.538 69.079C9.683 69.224 10.55 70.379 9.104 70.813C9.104 70.813 8.959 70.958 9.104 70.958C9.33701 71.1006 9.61523 71.15 9.88309 71.0965C10.151 71.0429 10.3888 70.8903 10.549 70.669C10.6902 70.9517 10.7381 71.272 10.6856 71.5836C10.6331 71.8952 10.483 72.1822 10.257 72.403C10.6076 72.7694 11.0607 73.0214 11.557 73.126C11.9445 72.956 12.254 72.6465 12.424 72.259C12.5123 72.5906 12.5123 72.9395 12.424 73.271C14.447 73.416 15.17 71.826 16.76 72.115C16.7841 71.3604 16.5341 70.6225 16.056 70.038C15.578 69.4536 14.9045 69.0621 14.16 68.936C12.281 68.502 12.715 67.78 12.715 67.78C13.1665 67.7564 13.616 67.8563 14.015 68.069C14.16 67.78 14.015 67.635 14.015 67.635C14.1096 67.5102 14.1606 67.3577 14.16 67.201C13.7689 67.2299 13.3759 67.1806 13.004 67.056C12.859 66.478 13.293 65.756 14.594 66.622C14.7731 66.423 14.8755 66.1667 14.883 65.899C15.028 65.899 15.028 65.754 15.028 65.61C15.028 65.321 13.872 64.743 13.728 64.743C13.728 64.454 13.294 63.876 11.994 64.165C11.416 64.31 10.982 64.02 11.127 63.731H10.983C10.9265 63.7938 10.8849 63.8686 10.8613 63.9497C10.8377 64.0308 10.8327 64.1161 10.8466 64.1995C10.8606 64.2828 10.8931 64.3619 10.9418 64.4309C10.9905 64.4999 11.0542 64.557 11.128 64.598C11.851 64.453 11.851 65.032 11.851 65.032C11.851 65.177 11.706 65.177 11.706 65.032C11.417 64.02 10.116 63.876 9.249 64.309C9.26232 64.5346 9.35794 64.7475 9.51774 64.9073C9.67753 65.0671 9.89041 65.1627 10.116 65.176C10.229 65.1696 10.3357 65.1218 10.4157 65.0417C10.4958 64.9617 10.5436 64.855 10.55 64.742C10.55 64.597 10.55 64.597 10.695 64.742C10.84 65.031 10.261 65.754 9.539 65.32C8.816 66.043 9.105 67.054 9.105 67.488C9.25 68.066 8.96 68.788 8.382 68.5C8.382 69.079 8.815 69.513 9.538 69.079ZM13.874 65.179C13.7975 65.2805 13.6929 65.3573 13.573 65.3997C13.4532 65.4421 13.3236 65.4483 13.2003 65.4175C13.077 65.3866 12.9655 65.3202 12.8797 65.2264C12.7939 65.1326 12.7377 65.0156 12.718 64.89C13.44 64.744 13.729 64.888 13.873 65.177L13.874 65.179ZM37.286 66.769C37.1149 66.7908 36.9412 66.7615 36.7868 66.6848C36.6323 66.6082 36.504 66.4875 36.418 66.338C36.418 66.193 36.273 66.193 36.273 66.338C36.128 67.061 36.562 67.35 36.996 67.35C37.574 67.35 37.863 66.916 38.586 66.916C38.875 66.916 39.164 66.916 39.164 66.771C39.164 66.626 38.73 66.626 38.586 66.626C37.863 66.623 37.863 66.767 37.285 66.767L37.286 66.769ZM44.945 68.648C44.367 68.937 43.933 68.214 44.078 67.636C44.2385 67.2741 44.283 66.8713 44.2053 66.4831C44.1276 66.0949 43.9315 65.7403 43.644 65.468C42.921 65.902 42.344 65.179 42.488 64.89C42.488 64.745 42.633 64.745 42.633 64.89C42.6394 65.003 42.6872 65.1097 42.7673 65.1897C42.8473 65.2698 42.954 65.3176 43.067 65.324C43.2926 65.3107 43.5055 65.2151 43.6653 65.0553C43.8251 64.8955 43.9207 64.6826 43.934 64.457C43.7342 64.3105 43.5032 64.2121 43.2591 64.1693C43.015 64.1266 42.7644 64.1408 42.5267 64.2108C42.2889 64.2807 42.0706 64.4046 41.8885 64.5727C41.7065 64.7408 41.5656 64.9486 41.477 65.18C41.477 65.325 41.332 65.325 41.332 65.18C41.3202 64.9735 41.3686 64.768 41.4711 64.5884C41.5737 64.4088 41.7262 64.2628 41.91 64.168C41.9966 64.1404 42.0739 64.0895 42.1334 64.0209C42.1929 63.9522 42.2323 63.8684 42.2473 63.7788C42.2623 63.6892 42.2523 63.5972 42.2183 63.5129C42.1844 63.4286 42.1279 63.3553 42.055 63.301H41.91C42.055 63.59 41.621 63.879 41.043 63.735C39.743 63.59 39.309 64.024 39.309 64.313C38.8054 64.4794 38.3562 64.779 38.009 65.18C38.009 65.18 38.009 65.469 38.154 65.469C38.1615 65.7367 38.2639 65.993 38.443 66.192C39.743 65.325 40.177 66.192 40.033 66.626C39.6611 66.7506 39.2681 66.7999 38.877 66.771C38.8764 66.9277 38.9274 67.0802 39.022 67.205C39.022 67.205 38.877 67.494 39.022 67.639C39.421 67.4263 39.8705 67.3264 40.322 67.35C40.322 67.35 40.9 68.073 38.877 68.506C38.1552 68.6778 37.5098 69.082 37.04 69.6563C36.5703 70.2307 36.3022 70.9435 36.277 71.685C37.867 71.396 38.589 72.985 40.613 72.841C40.5325 72.5085 40.5325 72.1616 40.613 71.829C40.783 72.2165 41.0925 72.526 41.48 72.696C41.7356 72.6745 41.9836 72.599 42.2078 72.4743C42.4319 72.3497 42.6269 72.1788 42.78 71.973C42.5545 71.7518 42.4049 71.4647 42.353 71.1531C42.3011 70.8415 42.3494 70.5214 42.491 70.239C42.6512 70.4603 42.889 70.6129 43.1569 70.6665C43.4248 70.72 43.703 70.6706 43.936 70.528C44.081 70.528 43.936 70.383 43.936 70.383C42.636 69.949 43.502 68.793 43.502 68.649C44.366 69.513 44.945 69.079 44.945 68.646V68.648ZM40.609 64.748C40.464 65.471 39.886 65.471 39.453 65.037C39.457 64.888 39.742 64.744 40.609 64.744V64.748ZM26.302 53.472C26.302 53.617 26.447 53.761 26.447 53.906C26.592 54.051 26.592 54.195 26.447 54.195C26.4283 54.2145 26.4059 54.2301 26.3811 54.2407C26.3562 54.2513 26.3295 54.2567 26.3025 54.2567C26.2755 54.2567 26.2488 54.2513 26.2239 54.2407C26.1991 54.2301 26.1767 54.2145 26.158 54.195C26.013 54.195 25.869 54.05 25.724 54.05C25.435 54.05 25.29 54.195 25.29 54.339C25.29 54.483 25.435 54.628 25.724 54.628C25.869 54.628 26.013 54.483 26.158 54.483C26.303 54.338 26.447 54.338 26.447 54.483C26.4404 54.8725 26.3918 55.26 26.302 55.639C25.868 55.784 25.579 56.073 25.579 56.362C25.579 56.94 26.157 57.229 26.591 57.518C26.854 57.445 27.0899 57.2966 27.2697 57.0912C27.4495 56.8859 27.5654 56.6324 27.603 56.362C27.603 56.073 27.314 55.784 26.88 55.639C26.88 55.205 26.735 54.627 26.735 54.483C26.7537 54.4635 26.7761 54.448 26.8009 54.4374C26.8258 54.4268 26.8525 54.4213 26.8795 54.4213C26.9065 54.4213 26.9332 54.4268 26.9581 54.4374C26.9829 54.448 27.0053 54.4635 27.024 54.483C27.169 54.483 27.313 54.628 27.458 54.628C27.747 54.628 27.892 54.483 27.892 54.339C27.892 54.195 27.747 54.05 27.458 54.05C27.313 54.05 27.169 54.195 27.024 54.195C26.879 54.34 26.735 54.34 26.735 54.195C26.7155 54.1764 26.7 54.1539 26.6894 54.1291C26.6787 54.1043 26.6733 54.0775 26.6733 54.0505C26.6733 54.0235 26.6787 53.9968 26.6894 53.972C26.7 53.9471 26.7155 53.9247 26.735 53.906C26.735 53.761 26.88 53.617 26.88 53.472C26.88 53.183 26.735 53.038 26.591 53.038C26.447 53.038 26.302 53.183 26.302 53.472ZM26.591 57.808C26.448 57.808 26.3082 57.8504 26.1893 57.9299C26.0704 58.0093 25.9778 58.1222 25.923 58.2543C25.8683 58.3865 25.854 58.5318 25.8819 58.6721C25.9098 58.8123 25.9787 58.9411 26.0798 59.0423C26.1809 59.1434 26.3097 59.2122 26.45 59.2401C26.5902 59.268 26.7356 59.2537 26.8677 59.199C26.9998 59.1443 27.1127 59.0516 27.1922 58.9327C27.2716 58.8138 27.314 58.674 27.314 58.531C27.32 58.4345 27.3054 58.3378 27.2712 58.2473C27.237 58.1568 27.184 58.0746 27.1156 58.0062C27.0472 57.9377 26.9651 57.8846 26.8747 57.8502C26.7843 57.8159 26.6876 57.8012 26.591 57.807V57.808ZM26.591 64.6C28.1055 64.5547 29.6176 64.7498 31.071 65.178C31.071 63.733 31.071 63.01 31.938 63.01C31.504 61.854 33.383 61.276 33.383 59.831C33.4041 59.6865 33.3937 59.5391 33.3523 59.3991C33.311 59.259 33.2398 59.1296 33.1436 59.0197C33.0474 58.9098 32.9285 58.8221 32.7951 58.7626C32.6617 58.7031 32.517 58.6732 32.371 58.675C31.793 58.675 31.793 59.109 31.215 59.109H31.07C31.0764 59.222 31.1242 59.3287 31.2043 59.4087C31.2843 59.4888 31.391 59.5366 31.504 59.543C31.793 59.543 31.793 59.254 32.082 59.254C32.227 59.254 32.371 59.399 32.371 59.688C32.3058 60.4671 31.9426 61.191 31.357 61.709C31.212 61.564 31.068 61.42 30.923 61.42C30.7512 61.4409 30.5944 61.5283 30.4863 61.6635C30.3782 61.7987 30.3275 61.9708 30.345 62.143C30.3353 62.2216 30.3433 62.3014 30.3684 62.3764C30.3934 62.4515 30.435 62.5201 30.49 62.577C30.4028 62.6511 30.2966 62.6993 30.1835 62.7163C30.0704 62.7333 29.9548 62.7185 29.8496 62.6734C29.7445 62.6283 29.654 62.5548 29.5883 62.4611C29.5227 62.3674 29.4845 62.2572 29.478 62.143C29.478 60.987 31.068 59.975 31.068 58.53C31.0803 58.3371 31.0514 58.1437 30.9831 57.9628C30.9149 57.7819 30.8089 57.6176 30.6721 57.4809C30.5354 57.3442 30.3711 57.2381 30.1902 57.1699C30.0093 57.1016 29.816 57.0727 29.623 57.085C28.611 57.085 28.756 58.097 27.889 58.097H27.747C27.747 58.097 27.892 58.675 28.325 58.675C28.758 58.675 28.903 57.808 29.337 57.808C29.482 57.808 29.771 57.953 29.771 58.531C29.6726 59.1826 29.4778 59.8158 29.193 60.41C29.136 60.355 29.0675 60.3135 28.9924 60.2884C28.9173 60.2633 28.8376 60.2553 28.759 60.265C28.5493 60.2868 28.3563 60.3896 28.2213 60.5516C28.0862 60.7135 28.0198 60.9218 28.036 61.132C28.041 61.4002 28.1437 61.6573 28.325 61.855C28.036 62.144 27.891 62.433 27.602 62.433C27.024 62.433 26.735 62.144 26.735 61.71C26.735 61.276 27.458 61.132 27.458 60.554C27.4755 60.3818 27.4248 60.2096 27.3167 60.0745C27.2086 59.9393 27.0518 59.8519 26.88 59.831C26.7223 59.8235 26.5675 59.8753 26.446 59.976C26.3245 59.8753 26.1697 59.8235 26.012 59.831C25.8402 59.8519 25.6834 59.9393 25.5753 60.0745C25.4672 60.2096 25.4165 60.3818 25.434 60.554C25.434 61.132 26.157 61.277 26.157 61.71C26.157 62.143 25.868 62.433 25.29 62.433C25.1305 62.4054 24.9806 62.338 24.8542 62.2369C24.7278 62.1359 24.629 62.0045 24.567 61.855C24.7483 61.6573 24.851 61.4002 24.856 61.132C24.8722 60.9218 24.8058 60.7135 24.6707 60.5516C24.5357 60.3896 24.3427 60.2868 24.133 60.265C23.988 60.265 23.844 60.41 23.699 60.41C23.4142 59.8158 23.2194 59.1826 23.121 58.531C23.121 57.953 23.41 57.808 23.555 57.808C23.989 57.808 24.133 58.675 24.567 58.675C25.001 58.675 25.145 58.097 25.145 58.097H25C24.133 58.097 24.277 57.085 23.266 57.085C23.073 57.0727 22.8797 57.1016 22.6988 57.1699C22.5179 57.2381 22.3536 57.3442 22.2169 57.4809C22.0801 57.6176 21.9741 57.7819 21.9059 57.9628C21.8376 58.1437 21.8087 58.3371 21.821 58.53C21.821 59.975 23.411 60.987 23.411 62.143C23.411 62.721 23.122 62.721 22.833 62.721C22.7544 62.7307 22.6747 62.7228 22.5996 62.6977C22.5245 62.6726 22.456 62.631 22.399 62.576C22.399 62.431 22.544 62.287 22.544 62.142C22.5615 61.9698 22.5108 61.7977 22.4027 61.6625C22.2946 61.5273 22.1378 61.4399 21.966 61.419C21.821 61.419 21.677 61.564 21.532 61.708C20.9467 61.1892 20.5842 60.4645 20.52 59.685C20.52 59.396 20.665 59.251 20.809 59.251C21.098 59.251 21.098 59.54 21.387 59.54C21.5 59.5336 21.6067 59.4858 21.6867 59.4058C21.7668 59.3257 21.8146 59.219 21.821 59.106H21.677C21.099 59.106 21.243 58.672 20.521 58.672C20.3784 58.6809 20.2391 58.7179 20.1109 58.781C19.9827 58.844 19.8683 58.9318 19.7742 59.0392C19.6801 59.1467 19.6083 59.2717 19.5627 59.4071C19.5172 59.5425 19.499 59.6855 19.509 59.828C19.509 61.418 21.388 61.851 20.954 63.007C21.821 62.862 21.821 63.73 21.821 65.175C23.3879 64.825 24.9858 64.6321 26.591 64.599V64.6ZM21.391 66.623C20.8469 66.7102 20.3139 66.8557 19.801 67.057C19.801 66.768 19.946 66.334 20.235 66.334V66.189C19.512 65.755 19.223 66.623 19.223 66.623C18.934 66.623 18.645 66.623 18.645 67.057C18.645 68.069 16.333 68.647 15.899 68.647C16.5008 68.9452 16.9659 69.4621 17.199 70.092C17.6571 69.5775 18.1937 69.1388 18.789 68.792C18.934 68.792 19.078 69.081 19.078 69.081H19.223C19.512 68.503 19.368 68.503 19.368 68.358C19.3566 68.2795 19.3637 68.1993 19.3887 68.124C19.4137 68.0487 19.456 67.9802 19.5121 67.9241C19.5682 67.868 19.6367 67.8257 19.712 67.8007C19.7873 67.7757 19.8675 67.7686 19.946 67.78V74.428H19.657C19.512 74.428 18.645 73.561 17.489 72.838C16.333 72.115 15.755 72.549 14.599 73.272C14.084 73.5213 13.5236 73.6628 12.952 73.6877C12.3804 73.7126 11.8097 73.6205 11.275 73.417C9.83 74.429 9.396 77.317 9.396 77.317C9.03673 77.4975 8.64195 77.5962 8.24 77.606C8.08815 77.6252 7.93401 77.6142 7.78642 77.5737C7.63883 77.5332 7.50069 77.4639 7.37992 77.3699C7.25914 77.2759 7.15811 77.1589 7.08262 77.0258C7.00713 76.8927 6.95867 76.7459 6.94 76.594C6.936 74.86 8.957 74.138 8.957 72.548C8.97073 72.2661 8.92284 71.9846 8.81666 71.723C8.71048 71.4615 8.54857 71.2263 8.3422 71.0337C8.13583 70.8411 7.88996 70.6959 7.62172 70.608C7.35347 70.5202 7.06931 70.4918 6.789 70.525H5.057C4.83105 70.5385 4.60731 70.4741 4.42313 70.3425C4.23895 70.2109 4.10548 70.0202 4.045 69.802C4.045 69.657 3.9 69.802 3.9 69.802C3.82152 70.036 3.7728 70.2789 3.755 70.525C3.755 71.248 4.189 71.537 4.911 71.537C5.15464 71.5029 5.39606 71.4545 5.634 71.392V71.392C5.50885 71.5818 5.43046 71.7986 5.40525 72.0246C5.38005 72.2506 5.40875 72.4793 5.489 72.692H5.634C5.72447 72.2943 5.94324 71.9374 6.25659 71.6762C6.56994 71.4151 6.96048 71.2643 7.368 71.247C7.52506 71.2244 7.68523 71.2387 7.83579 71.2888C7.98635 71.339 8.12316 71.4235 8.23536 71.5357C8.34757 71.6479 8.43207 71.7847 8.48218 71.9352C8.53228 72.0858 8.5466 72.246 8.524 72.403C8.524 73.703 6.212 74.715 6.212 76.594C6.212 78.473 8.237 78.907 9.393 78.618C9.393 80.497 7.225 81.075 7.081 79.774C7.081 79.774 7.081 79.629 6.936 79.774C6.647 80.497 6.791 81.074 7.659 81.219V81.364C6.792 81.942 7.225 83.964 7.37 84.543C7.37535 84.6523 7.35525 84.7614 7.31128 84.8616C7.26732 84.9618 7.20069 85.0505 7.11664 85.1205C7.03259 85.1906 6.93342 85.2402 6.82694 85.2655C6.72046 85.2907 6.60957 85.2909 6.503 85.266V85.411C7.081 86.134 7.948 85.411 7.948 85.411C8.526 85.556 8.237 86.134 7.803 86.278V86.423C7.948 86.423 8.815 86.568 8.959 85.845C9.11654 85.9788 9.30277 86.0744 9.50325 86.1245C9.70373 86.1746 9.91306 86.1779 10.115 86.134C10.2211 86.0488 10.3494 85.9958 10.4847 85.9813C10.62 85.9668 10.7566 85.9914 10.8784 86.0523C11.0001 86.1131 11.1018 86.2077 11.1714 86.3246C11.241 86.4415 11.2756 86.576 11.271 86.712V86.712C11.3817 86.6158 11.4613 86.4889 11.4999 86.3475C11.5385 86.206 11.5343 86.0563 11.4879 85.9172C11.4415 85.7781 11.3549 85.6559 11.239 85.566C11.1232 85.476 10.9833 85.4225 10.837 85.412C10.9122 85.3531 10.9985 85.3101 11.0908 85.2854C11.1831 85.2608 11.2794 85.2551 11.3739 85.2686C11.4685 85.2821 11.5593 85.3147 11.641 85.3642C11.7226 85.4138 11.7934 85.4794 11.849 85.557V85.557C11.849 84.545 11.126 84.401 10.549 84.834C10.549 84.689 10.404 84.111 11.127 84.256C10.549 83.533 9.971 84.256 9.827 84.401C9.538 84.69 8.815 84.546 8.815 84.546C8.526 80.933 11.561 82.089 11.994 80.5C12.139 80.934 13.15 80.934 13.294 80.211C12.427 81.078 10.404 78.332 13.149 76.02C13.8468 75.3745 14.7479 74.9925 15.697 74.9397C16.6461 74.887 17.584 75.1668 18.349 75.731C18.349 76.02 18.204 76.165 18.06 76.165C18.1806 76.2191 18.3151 76.2342 18.4447 76.2082C18.5743 76.1822 18.6926 76.1164 18.783 76.02C19.217 76.309 18.783 76.743 18.638 76.887V77.032C19.072 77.177 19.505 76.598 19.505 76.309H19.657V78.332C19.657 81.222 22.981 81.511 26.449 83.968C30.062 81.511 33.241 81.222 33.241 78.332V76.305H33.386C33.4323 76.5034 33.542 76.6813 33.6984 76.8117C33.8548 76.9422 34.0495 77.0181 34.253 77.028V76.883C34.108 76.738 33.675 76.305 34.108 76.016C34.1984 76.1124 34.3167 76.1782 34.4463 76.2042C34.5759 76.2302 34.7104 76.2151 34.831 76.161V76.161C34.686 76.161 34.542 76.016 34.542 75.727C35.2942 75.1312 36.2387 74.8316 37.1968 74.8848C38.155 74.9381 39.0604 75.3405 39.742 76.016C42.488 78.328 40.465 81.074 39.597 80.207C39.742 81.074 40.897 80.93 40.897 80.496C41.331 82.23 44.365 80.93 44.654 84.396C44.654 84.396 43.931 84.541 43.642 84.251C43.5747 84.1451 43.4845 84.0555 43.378 83.9891C43.2715 83.9226 43.1515 83.8809 43.0268 83.867C42.902 83.8531 42.7757 83.8673 42.6572 83.9087C42.5387 83.9501 42.431 84.0175 42.342 84.106V84.106C43.209 84.106 42.92 84.684 42.92 84.684C42.342 84.25 41.62 84.395 41.62 85.407C41.6756 85.3294 41.7464 85.2638 41.828 85.2143C41.9097 85.1647 42.0005 85.1321 42.0951 85.1186C42.1896 85.105 42.2859 85.1108 42.3782 85.1354C42.4705 85.1601 42.5568 85.2031 42.632 85.262C42.4857 85.2725 42.3458 85.326 42.23 85.416C42.1141 85.5059 42.0275 85.6281 41.9811 85.7672C41.9347 85.9063 41.9305 86.056 41.9691 86.1975C42.0077 86.3389 42.0874 86.4658 42.198 86.562V86.562C42.343 85.695 43.065 85.984 43.354 85.984C43.5522 86.0663 43.7716 86.0825 43.9797 86.0305C44.1879 85.9785 44.3738 85.8608 44.51 85.695C44.655 86.418 45.522 86.273 45.666 86.273V86.128C45.232 85.839 44.943 85.405 45.521 85.261C45.6144 85.3586 45.7265 85.4362 45.8507 85.4893C45.9748 85.5423 46.1085 85.5697 46.2435 85.5697C46.3785 85.5697 46.5122 85.5423 46.6363 85.4893C46.7605 85.4362 46.8726 85.3586 46.966 85.261V85.116C46.966 85.116 45.954 85.261 46.099 84.393C46.099 83.815 46.533 81.793 45.81 81.214C45.81 81.214 45.665 81.214 45.81 81.069C46.677 80.924 46.822 80.346 46.533 79.624C46.533 79.479 46.388 79.624 46.388 79.624C46.388 80.924 44.22 80.347 44.076 78.468C45.232 78.757 47.255 78.323 47.255 76.445C47.255 74.567 44.943 73.555 44.943 72.254C44.9204 72.097 44.9347 71.9368 44.9848 71.7862C45.0349 71.6357 45.1194 71.4989 45.2316 71.3867C45.3438 71.2745 45.4807 71.19 45.6312 71.1399C45.7818 71.0897 45.9419 71.0754 46.099 71.098C46.5065 71.1153 46.8971 71.2661 47.2104 71.5272C47.5238 71.7884 47.7425 72.1453 47.833 72.543H47.978C48.0567 72.33 48.0846 72.1016 48.0595 71.8759C48.0343 71.6501 47.9567 71.4334 47.833 71.243V71.243C48.0709 71.3055 48.3124 71.3539 48.556 71.388C48.6999 71.4056 48.8459 71.3926 48.9845 71.35C49.1231 71.3073 49.2511 71.2359 49.3602 71.1404C49.4693 71.0449 49.557 70.9274 49.6176 70.7957C49.6782 70.664 49.7104 70.521 49.712 70.376C49.6942 70.1299 49.6455 69.887 49.567 69.653C49.567 69.653 49.567 69.508 49.422 69.653C49.277 69.798 49.133 70.376 48.41 70.376H46.679C46.3987 70.3428 46.1145 70.3712 45.8463 70.459C45.578 70.5469 45.3322 70.6921 45.1258 70.8847C44.9194 71.0773 44.7575 71.3125 44.6513 71.574C44.5452 71.8356 44.4973 72.1171 44.511 72.399C44.511 73.989 46.534 74.711 46.534 76.445C46.534 76.879 46.389 77.457 45.234 77.457C44.8321 77.4472 44.4373 77.3486 44.078 77.168C44.078 77.168 43.644 74.278 42.199 73.268C41.6738 73.5117 41.0978 73.6256 40.5193 73.6004C39.9409 73.5752 39.377 73.4115 38.875 73.123C37.575 72.4 36.996 71.967 35.985 72.689C34.829 73.412 33.962 74.279 33.817 74.279H33.528V67.638C33.6066 67.6266 33.6867 67.6337 33.762 67.6587C33.8373 67.6837 33.9058 67.726 33.9619 67.7821C34.018 67.8382 34.0603 67.9067 34.0853 67.982C34.1103 68.0573 34.1174 68.1375 34.106 68.216C34.0664 68.3389 34.059 68.4698 34.0844 68.5964C34.1098 68.723 34.1671 68.8409 34.251 68.939V68.939C34.2561 68.8641 34.2882 68.7935 34.3414 68.7404C34.3945 68.6873 34.465 68.6552 34.54 68.65C35.1614 68.9576 35.705 69.4021 36.13 69.95C36.3631 69.3201 36.8282 68.8032 37.43 68.505C36.852 68.36 34.684 67.927 34.684 66.915C34.684 66.626 34.25 66.481 34.106 66.481C34.106 66.481 33.672 65.614 33.094 66.047V66.192C33.383 66.192 33.528 66.626 33.528 66.915C31.3148 66.297 29.0332 65.957 26.736 65.903C25.2791 65.8898 23.8252 66.0357 22.4 66.338V68.65H21.533V66.623H21.388H21.391ZM15.318 90.038C15.029 89.893 14.884 89.749 14.884 89.46V88.011C13.6806 87.5785 12.4046 87.3839 11.127 87.438C9.248 87.438 8.67 87.872 8.67 88.016L8.237 90.757C8.237 90.757 8.96 90.034 11.705 90.179C14.884 90.324 18.205 92.347 18.205 90.324V89.167C15.607 89.167 15.318 89.89 15.318 90.038ZM35.118 89.171V90.327C35.118 92.35 38.442 90.472 41.618 90.182C44.218 90.037 45.086 90.76 45.086 90.76L44.657 88.011C44.657 87.866 44.079 87.433 42.2 87.433C40.9231 87.3983 39.6504 87.5941 38.443 88.011V89.456C38.443 89.745 38.298 89.89 38.009 90.034C38.008 89.89 37.574 89.167 35.117 89.167L35.118 89.171ZM26.591 87.871C31.791 87.871 36.996 88.16 37.719 88.883H37.864V86.133C37.864 85.266 32.372 84.833 26.736 84.833C20.955 84.833 15.608 85.267 15.608 86.133V88.878C15.608 88.878 15.608 89.023 15.753 88.878C16.186 88.156 21.388 87.867 26.591 87.867V87.871ZM21.966 75.005L21.388 74.86L20.81 74.571H21.388L20.957 74.138L21.535 74.427C21.4169 74.2158 21.2709 74.0214 21.101 73.849C21.3026 73.9815 21.4956 74.1264 21.679 74.283V74.283C21.5689 74.0477 21.4724 73.8063 21.39 73.56L21.968 74.138C21.9502 73.8919 21.9015 73.649 21.823 73.415L22.257 73.993V73.415C22.3223 73.6217 22.4198 73.8168 22.546 73.993V73.993L22.691 73.559V74.282H22.546L22.401 75.005C23.124 74.86 24.135 73.415 24.858 73.415C25.725 73.415 26.014 74.427 27.748 73.993C28.1357 74.5526 28.3836 75.1969 28.471 75.872C29.049 76.45 30.061 76.306 30.061 75.583C30.061 74.716 29.194 74.571 29.194 73.704C29.1897 73.57 29.2129 73.4364 29.2623 73.3117C29.3116 73.187 29.386 73.0737 29.4808 72.9788C29.5757 72.884 29.689 72.8096 29.8137 72.7603C29.9384 72.7109 30.0719 72.6877 30.206 72.692C30.64 72.692 31.218 72.837 31.506 72.837C31.94 72.837 31.94 72.548 32.084 72.403C32.084 72.258 32.229 72.403 32.229 72.403V72.838C32.229 73.416 31.362 73.416 31.362 73.416C31.4318 73.4961 31.4702 73.5988 31.4702 73.705C31.4702 73.8113 31.4318 73.9139 31.362 73.994V73.994C31.2933 73.7682 31.1616 73.5666 30.9824 73.413C30.8031 73.2594 30.5837 73.1602 30.35 73.127C30.237 73.1335 30.1303 73.1813 30.0503 73.2613C29.9702 73.3413 29.9224 73.448 29.916 73.561C29.916 73.995 30.928 74.573 30.928 75.584C30.928 76.74 29.916 76.884 28.76 76.596C28.76 77.608 30.35 78.186 30.35 77.463C30.639 77.752 30.495 78.041 30.205 78.186C30.494 78.331 30.494 78.909 30.639 79.198C30.784 79.632 31.217 79.343 31.362 79.343C31.217 79.777 30.639 79.632 30.639 79.632C30.35 79.777 30.639 79.921 30.928 80.066C30.783 80.066 30.35 80.211 30.205 79.921C30.1485 80.0214 30.0633 80.1025 29.9603 80.154C29.8572 80.2055 29.7412 80.225 29.627 80.21C29.482 80.21 29.338 80.355 29.338 80.644C29.2696 80.6116 29.2117 80.5604 29.1712 80.4964C29.1307 80.4324 29.1092 80.3583 29.1092 80.2825C29.1092 80.2068 29.1307 80.1326 29.1712 80.0686C29.2117 80.0046 29.2696 79.9534 29.338 79.921C29.338 79.921 29.049 79.776 28.904 80.21C28.759 79.632 29.193 79.487 29.482 79.632C29.482 79.487 29.337 79.343 28.904 79.343C28.904 79.198 29.193 78.909 29.627 79.198C29.772 79.343 30.205 79.198 30.205 79.198C29.482 77.898 28.182 78.909 27.893 77.898C27.893 78.187 27.17 78.187 27.17 77.753C27.315 77.898 27.459 77.898 27.748 77.608C27.853 77.3819 27.9027 77.1341 27.893 76.885C27.8565 76.322 27.6164 75.7915 27.2175 75.3926C26.8185 74.9936 26.288 74.7535 25.725 74.717C24.8709 74.694 24.0414 75.0051 23.413 75.584L23.991 75.729C23.9767 75.8638 23.9347 75.9943 23.8677 76.1121C23.8007 76.23 23.7102 76.3328 23.6017 76.4142C23.4933 76.4955 23.3692 76.5537 23.2373 76.5849C23.1054 76.6162 22.9684 76.62 22.835 76.596L22.98 75.873C22.835 75.873 22.691 76.018 22.546 76.162C22.401 75.728 22.835 75.584 22.835 75.439C22.7232 75.4411 22.6133 75.4682 22.5133 75.5182C22.4133 75.5682 22.3258 75.6399 22.257 75.728V75.728C21.966 75.294 21.822 75.149 21.966 75.005ZM23.845 79.774C23.556 80.063 23.411 79.774 23.122 79.774C23.0838 79.7732 23.0459 79.7801 23.0104 79.7944C22.975 79.8086 22.9428 79.8298 22.9158 79.8568C22.8888 79.8839 22.8676 79.916 22.8533 79.9515C22.8391 79.9869 22.8322 80.0248 22.833 80.063V80.063C22.544 79.629 22.833 79.34 23.122 79.34C23.0847 79.301 23.0398 79.2699 22.9901 79.2487C22.9405 79.2275 22.887 79.2166 22.833 79.2166C22.779 79.2166 22.7255 79.2275 22.6759 79.2487C22.6262 79.2699 22.5813 79.301 22.544 79.34C22.544 78.762 22.978 78.762 23.267 79.051C23.2619 78.9761 23.2298 78.9055 23.1766 78.8524C23.1235 78.7993 23.053 78.7672 22.978 78.762V78.762C23.123 78.617 23.123 78.617 23.267 78.617C23.556 78.617 23.556 79.051 23.845 79.051C24.134 79.051 24.568 78.617 24.568 78.617C24.4234 78.1959 24.3264 77.7598 24.279 77.317C24.134 77.462 23.701 77.462 23.701 76.883C23.846 77.172 24.135 76.883 24.279 76.738C24.423 76.593 25.146 75.438 26.158 75.438C26.4262 75.443 26.6833 75.5458 26.881 75.727C26.592 76.161 26.881 76.594 27.17 76.45C25.87 76.884 25.291 77.173 25.291 78.329C25.291 78.907 25.436 79.196 25.869 79.196C25.812 79.251 25.7435 79.2926 25.6684 79.3177C25.5933 79.3428 25.5136 79.3507 25.435 79.341C25.146 79.341 25.146 79.196 25.001 79.196C24.856 79.196 24.278 79.485 24.278 79.774C24.278 79.919 24.278 80.063 24.567 80.063C24.278 80.063 23.845 80.063 23.845 79.774V79.774ZM27.313 68.791C26.879 68.791 26.59 68.791 26.59 68.936C26.88 69.224 27.169 69.224 27.313 68.79V68.791ZM25.868 69.947C26.157 69.802 26.446 69.947 26.591 69.947V70.092C26.013 70.237 26.013 70.526 25.579 70.526C25.29 70.526 25.001 70.237 25.145 69.948C25.146 69.802 25.29 69.947 25.868 69.947V69.947ZM17.775 83.531C18.209 84.109 18.642 83.531 19.075 83.531C19.1528 83.5234 19.2313 83.5331 19.3049 83.5595C19.3785 83.5858 19.4453 83.6282 19.5006 83.6835C19.5558 83.7387 19.5982 83.8056 19.6245 83.8791C19.6509 83.9527 19.6606 84.0312 19.653 84.109V84.109C20.231 83.242 19.508 82.809 19.219 82.809C19.2874 82.7354 19.3726 82.6794 19.4673 82.6459C19.5621 82.6124 19.6635 82.6024 19.763 82.6166C19.8624 82.6309 19.957 82.669 20.0385 82.7278C20.12 82.7865 20.186 82.8642 20.231 82.954V82.954C20.231 81.942 19.508 81.942 18.931 82.376C18.786 81.942 19.076 81.653 19.509 81.653C18.786 80.93 18.353 81.798 18.209 81.942C17.92 82.231 16.909 81.653 16.619 81.219C17.0903 80.7517 17.3949 80.1424 17.486 79.485V79.338C17.631 79.338 17.631 79.483 17.775 79.483C17.919 79.483 18.353 79.483 18.353 78.76C18.208 78.905 18.208 78.905 18.064 78.905C17.341 78.905 15.896 76.593 14.307 76.593C13.6665 76.6422 13.0587 76.8956 12.573 77.316C12.725 77.4754 12.8257 77.6768 12.862 77.894C12.8556 78.007 12.8078 78.1137 12.7277 78.1937C12.6477 78.2738 12.541 78.3216 12.428 78.328V78.328C13.3846 78.6068 14.306 78.9947 15.174 79.484C15.608 79.773 15.463 80.496 15.319 81.507C15.03 82.374 14.596 82.23 14.452 82.23C14.741 82.519 14.886 82.664 15.175 82.664C15.609 82.664 15.753 82.375 16.042 82.375C16.476 82.375 17.198 82.953 17.198 83.387C17.198 83.676 17.053 83.821 16.764 83.965C16.8539 84.0297 16.959 84.07 17.069 84.0821C17.1791 84.0941 17.2904 84.0775 17.3922 84.0338C17.4939 83.9901 17.5827 83.9209 17.6497 83.8328C17.7168 83.7447 17.76 83.6407 17.775 83.531ZM36.562 84.109C36.4481 84.0553 36.349 83.9745 36.2734 83.8738C36.1978 83.7731 36.1479 83.6554 36.128 83.531C36.128 83.097 36.995 82.519 37.284 82.519C37.573 82.519 37.718 82.808 38.151 82.808C38.44 82.808 38.585 82.663 38.874 82.374C38.729 82.374 38.151 82.519 38.007 81.651C37.718 80.639 37.718 80.061 38.152 79.628C39.02 79.1387 39.9414 78.7508 40.898 78.472V78.472C40.839 78.4806 40.7789 78.4752 40.7223 78.4565C40.6657 78.4377 40.6144 78.406 40.5722 78.3638C40.5301 78.3217 40.4984 78.2703 40.4796 78.2137C40.4608 78.1572 40.4554 78.097 40.464 78.038C40.449 77.9238 40.4685 77.8078 40.52 77.7048C40.5715 77.6018 40.6526 77.5165 40.753 77.46C40.2673 77.0396 39.6595 76.7862 39.019 76.737C37.285 76.737 35.84 79.049 35.262 79.049C35.117 79.049 35.117 79.049 34.973 78.904C34.973 79.627 35.407 79.627 35.551 79.627C35.695 79.627 35.84 79.627 35.84 79.482V79.627C35.9311 80.2844 36.2357 80.8937 36.707 81.361C36.273 81.795 35.407 82.373 35.117 82.084C34.972 81.939 34.539 81.072 33.817 81.795C34.251 81.795 34.54 82.084 34.395 82.518C33.817 82.084 33.095 82.084 33.095 83.096C33.384 82.518 33.962 82.951 34.107 82.951C33.9607 82.9615 33.8208 83.015 33.705 83.105C33.5892 83.1949 33.5025 83.3171 33.4561 83.4562C33.4097 83.5953 33.4055 83.745 33.4441 83.8865C33.4827 84.0279 33.5623 84.1548 33.673 84.251C33.6616 84.1725 33.6687 84.0923 33.6937 84.017C33.7187 83.9417 33.761 83.8732 33.8171 83.8171C33.8732 83.761 33.9417 83.7187 34.017 83.6937C34.0923 83.6687 34.1725 83.6616 34.251 83.673C34.829 83.673 35.118 84.107 35.551 83.673C35.551 84.254 36.418 84.109 36.562 84.109ZM22.833 70.809C22.833 70.954 22.544 70.809 22.544 70.809C22.5504 70.922 22.5982 71.0287 22.6783 71.1087C22.7583 71.1888 22.865 71.2366 22.978 71.243C23.123 71.243 23.267 71.243 23.267 71.098C23.267 71.098 24.279 71.387 24.712 71.532C24.5518 71.7957 24.453 72.092 24.423 72.399C23.989 72.11 22.4 71.243 22.4 71.243L21.966 71.966C21.821 72.111 21.532 71.821 21.532 71.677L21.966 71.099C21.821 70.954 21.532 71.099 21.388 71.099C21.4134 71.0301 21.453 70.9674 21.5042 70.9148C21.5553 70.8621 21.617 70.8209 21.6852 70.7936C21.7534 70.7664 21.8265 70.7538 21.8998 70.7566C21.9732 70.7594 22.0451 70.7776 22.111 70.81C22.111 70.521 21.677 70.665 21.533 70.665C21.5801 70.5982 21.64 70.5414 21.7092 70.4978C21.7784 70.4543 21.8556 70.425 21.9362 70.4115C22.0169 70.398 22.0994 70.4007 22.179 70.4193C22.2586 70.4379 22.3337 70.4722 22.4 70.52L22.545 70.231L22.256 69.942L22.401 69.653L22.69 69.942L24.569 67.485C24.7569 67.4192 24.9503 67.3707 25.147 67.34V67.918L23.268 70.518L23.702 70.663L23.413 70.808L22.979 70.663L22.833 70.809ZM29.333 70.52C29.333 70.809 29.478 71.098 29.767 70.954C29.767 71.243 29.189 71.388 29.044 71.099C28.899 71.533 28.899 71.822 29.333 72.111C29.044 72.256 28.755 72.256 28.61 71.966C28.4848 72.0994 28.4036 72.268 28.3777 72.4491C28.3518 72.6302 28.3822 72.8149 28.465 72.978C28.2094 73.1411 27.918 73.2395 27.6159 73.2648C27.3138 73.29 27.0101 73.2414 26.731 73.123C26.2135 72.7819 25.6156 72.5826 24.997 72.545C24.9978 72.162 25.1503 71.795 25.4211 71.5241C25.6919 71.2533 26.059 71.1008 26.442 71.1C27.165 70.955 27.309 70.666 27.165 70.377C26.9189 70.3948 26.676 70.4435 26.442 70.522C26.4225 70.5034 26.407 70.4809 26.3964 70.4561C26.3857 70.4313 26.3803 70.4045 26.3803 70.3775C26.3803 70.3505 26.3857 70.3238 26.3964 70.299C26.407 70.2741 26.4225 70.2517 26.442 70.233V69.944C27.02 69.944 27.02 69.799 27.02 69.799C27.165 69.221 26.586 69.221 26.153 69.51C26.008 69.51 26.008 69.221 26.008 69.221L25.863 69.076C25.863 68.931 26.441 68.642 26.586 68.498C26.586 68.353 26.875 68.064 27.453 68.064C27.598 67.919 27.453 67.341 27.308 67.052C27.597 67.197 27.742 67.775 27.886 67.775C27.886 67.775 28.609 67.341 28.609 67.486L28.754 68.353C28.899 68.498 29.477 68.353 29.621 68.498V68.643C29.3059 68.7283 29.0111 68.8759 28.754 69.077C28.9857 69.2316 29.1653 69.4525 29.2693 69.7109C29.3733 69.9693 29.3969 70.253 29.337 70.525L29.333 70.52Z" fill="white"/>
</svg>
